emg_normalized.mot
version=1
nRows=45
nColumns=17
in_degrees=yes
endheader
time	VM	VL	RF	GRA	TA	ADDLONG	SEMIMEM	BFLH	GM	GL	TFL	GLUTMAX	GLUTMED	PIRI	OBTINT	QF
1.075000	0.347058	0.383889	0.405687	0.215047	0.332095	0.250258	0.125028	0.209616	0.289781	0.336278	0.067475	0.650665	0.332324	0.038058	0.378427	0.405893
1.075500	0.354124	0.390500	0.412278	0.218019	0.335448	0.252384	0.126846	0.214520	0.295226	0.341785	0.068568	0.658604	0.338533	0.038476	0.381922	0.410969
1.076000	0.361239	0.397126	0.418868	0.220976	0.338743	0.254446	0.128654	0.219470	0.300694	0.347295	0.069664	0.666477	0.344764	0.038890	0.385350	0.416009
1.076500	0.368402	0.403762	0.425463	0.223917	0.341980	0.256440	0.130452	0.224466	0.306184	0.352804	0.070759	0.674286	0.351013	0.039299	0.388708	0.421011
1.077000	0.375615	0.410411	0.432057	0.226842	0.345164	0.258365	0.132239	0.229504	0.311694	0.358313	0.071857	0.682027	0.357277	0.039703	0.392000	0.425976
1.077500	0.382874	0.417069	0.438656	0.229751	0.348289	0.260218	0.134015	0.234586	0.317225	0.363820	0.072952	0.689702	0.363554	0.040103	0.395226	0.430905
1.078000	0.390179	0.423737	0.445251	0.232641	0.351361	0.261997	0.135778	0.239709	0.322773	0.369322	0.074053	0.697309	0.369842	0.040500	0.398387	0.435798
1.078500	0.397532	0.430412	0.451845	0.235510	0.354378	0.263699	0.137527	0.244874	0.328340	0.374820	0.075150	0.704848	0.376138	0.040892	0.401487	0.440657
1.079000	0.404930	0.437091	0.458440	0.238364	0.357343	0.265324	0.139262	0.250079	0.333921	0.380311	0.076250	0.712321	0.382439	0.041280	0.404525	0.445483
1.079500	0.412374	0.443775	0.465030	0.241196	0.360253	0.266868	0.140982	0.255323	0.339519	0.385797	0.077353	0.719727	0.388743	0.041666	0.407503	0.450276
1.080000	0.419863	0.450462	0.471621	0.244008	0.363115	0.268330	0.142684	0.260607	0.345132	0.391275	0.078453	0.727064	0.395047	0.042049	0.410424	0.455038
1.080500	0.427397	0.457151	0.478207	0.246799	0.365927	0.269709	0.144371	0.265929	0.350758	0.396744	0.079555	0.734335	0.401350	0.042429	0.413290	0.459769
1.081000	0.434976	0.463840	0.484789	0.249569	0.368690	0.271002	0.146040	0.271287	0.356398	0.402207	0.080658	0.741541	0.407649	0.042806	0.416103	0.464469
1.081500	0.442596	0.470526	0.491363	0.252321	0.371409	0.272208	0.147691	0.276682	0.362048	0.407660	0.081762	0.748680	0.413941	0.043182	0.418864	0.469140
1.082000	0.450261	0.477210	0.497937	0.255049	0.374087	0.273324	0.149324	0.282112	0.367710	0.413105	0.082867	0.755753	0.420226	0.043556	0.421574	0.473783
1.082500	0.457968	0.483890	0.504503	0.257755	0.376716	0.274350	0.150938	0.287578	0.373379	0.418539	0.083972	0.762761	0.426499	0.043929	0.424236	0.478396
1.083000	0.465715	0.490564	0.511061	0.260442	0.379304	0.275285	0.152533	0.293076	0.379059	0.423966	0.085077	0.769701	0.432758	0.044300	0.426851	0.482982
1.083500	0.473503	0.497230	0.517610	0.263106	0.381853	0.276128	0.154109	0.298608	0.384746	0.429382	0.086181	0.776576	0.439002	0.044670	0.429421	0.487541
1.084000	0.481330	0.503886	0.524151	0.265749	0.384361	0.276878	0.155666	0.304170	0.390440	0.434789	0.087288	0.783382	0.445227	0.045040	0.431949	0.492073
1.084500	0.489195	0.510532	0.530684	0.268371	0.386834	0.277534	0.157203	0.309764	0.396142	0.440188	0.088395	0.790119	0.451432	0.045410	0.434437	0.496580
1.085000	0.497095	0.517164	0.537201	0.270970	0.389270	0.278096	0.158720	0.315386	0.401851	0.445578	0.089502	0.796788	0.457613	0.045779	0.436885	0.501063
1.085500	0.505030	0.523787	0.543705	0.273551	0.391671	0.278564	0.160219	0.321036	0.407567	0.450960	0.090609	0.803385	0.463771	0.046148	0.439294	0.505521
1.086000	0.512999	0.530391	0.550193	0.276111	0.394045	0.278939	0.161697	0.326711	0.413288	0.456335	0.091718	0.809911	0.469899	0.046519	0.441668	0.509958
1.086500	0.520999	0.536983	0.556665	0.278650	0.396384	0.279221	0.163154	0.332413	0.419015	0.461702	0.092825	0.816365	0.475997	0.046889	0.444008	0.514372
1.087000	0.529029	0.543553	0.563116	0.281170	0.398700	0.279410	0.164592	0.338137	0.424748	0.467063	0.093932	0.822743	0.482064	0.047262	0.446315	0.518764
1.087500	0.537084	0.550105	0.569546	0.283668	0.400985	0.279508	0.166008	0.343882	0.430487	0.472415	0.095042	0.829045	0.488096	0.047635	0.448591	0.523136
1.088000	0.545167	0.556638	0.575956	0.286147	0.403242	0.279517	0.167404	0.349647	0.436232	0.477761	0.096148	0.835269	0.494092	0.048010	0.450836	0.527489
1.088500	0.553273	0.563148	0.582342	0.288603	0.405482	0.279437	0.168779	0.355430	0.441982	0.483098	0.097255	0.841413	0.500049	0.048387	0.453054	0.531824
1.089000	0.561398	0.569633	0.588702	0.291040	0.407696	0.279271	0.170133	0.361230	0.447737	0.488430	0.098360	0.847475	0.505964	0.048765	0.455245	0.536141
1.089500	0.569542	0.576093	0.595034	0.293457	0.409891	0.279019	0.171465	0.367043	0.453497	0.493754	0.099465	0.853452	0.511837	0.049147	0.457410	0.540443
1.090000	0.577701	0.582524	0.601334	0.295851	0.412064	0.278684	0.172775	0.372869	0.459260	0.499070	0.100569	0.859341	0.517664	0.049530	0.459552	0.544731
1.090500	0.585874	0.588927	0.607604	0.298223	0.414223	0.278267	0.174062	0.378703	0.465025	0.504378	0.101672	0.865145	0.523441	0.049917	0.461671	0.549005
1.091000	0.594056	0.595297	0.613842	0.300573	0.416365	0.277769	0.175328	0.384545	0.470796	0.509678	0.102772	0.870854	0.529169	0.050307	0.463772	0.553266
1.091500	0.602246	0.601634	0.620043	0.302900	0.418493	0.277191	0.176570	0.390392	0.476566	0.514970	0.103872	0.876470	0.534843	0.050700	0.465853	0.557517
1.092000	0.610441	0.607935	0.626203	0.305205	0.420612	0.276536	0.177788	0.396243	0.482339	0.520254	0.104968	0.881992	0.540464	0.051097	0.467917	0.561756
1.092500	0.618634	0.614201	0.632321	0.307488	0.422718	0.275806	0.178983	0.402093	0.488112	0.525527	0.106061	0.887414	0.546029	0.051497	0.469965	0.565986
1.093000	0.626826	0.620427	0.638395	0.309745	0.424815	0.275002	0.180154	0.407940	0.493885	0.530791	0.107152	0.892739	0.551538	0.051901	0.471999	0.570208
1.093500	0.635013	0.626610	0.644424	0.311982	0.426903	0.274128	0.181301	0.413783	0.499657	0.536044	0.108241	0.897962	0.556988	0.052309	0.474021	0.574423
1.094000	0.643191	0.632749	0.650403	0.314190	0.428991	0.273187	0.182423	0.419618	0.505429	0.541288	0.109325	0.903082	0.562380	0.052722	0.476032	0.578632
1.094500	0.651357	0.638842	0.656325	0.316378	0.431070	0.272179	0.183520	0.425443	0.511197	0.546519	0.110404	0.908098	0.567715	0.053139	0.478034	0.582837
1.095000	0.659506	0.644889	0.662194	0.318541	0.433149	0.271109	0.184593	0.431256	0.516963	0.551741	0.111479	0.913008	0.572990	0.053561	0.480027	0.587039
1.095500	0.667637	0.650885	0.668001	0.320676	0.435228	0.269979	0.185641	0.437054	0.522723	0.556950	0.112549	0.917811	0.578207	0.053988	0.482014	0.591239
1.096000	0.675745	0.656830	0.673747	0.322787	0.437307	0.268792	0.186664	0.442836	0.528480	0.562148	0.113613	0.922505	0.583365	0.054419	0.483997	0.595439
1.096500	0.683826	0.662720	0.679422	0.324871	0.439391	0.267550	0.187663	0.448596	0.534231	0.567336	0.114672	0.927087	0.588463	0.054856	0.485974	0.599639
1.097000	0.691876	0.668556	0.685029	0.326930	0.441474	0.266255	0.188638	0.454335	0.539973	0.572510	0.115724	0.931556	0.593501	0.055297	0.487950	0.603843
